<svg width="256" height="256" version="1.1" viewBox="0 0 256 256" xmlns="http://www.w3.org/2000/svg"><rect width="256" height="256" rx="60" fill="#f4f2ed"/><path class="x19hqcy" d="m173.94 120.99a66.667 66.667 0 0 0-2.518-1.143c-1.482-27.307-16.403-42.94-41.457-43.1h-0.34c-14.986 0-27.449 6.396-35.12 18.036l13.779 9.452c5.73-8.695 14.724-10.548 21.348-10.548h0.229c8.249 0.053 14.474 2.452 18.503 7.129 2.932 3.405 4.893 8.111 5.864 14.05-7.314-1.243-15.224-1.626-23.68-1.14-23.82 1.371-39.134 15.264-38.105 34.568 0.522 9.792 5.4 18.216 13.735 23.719 7.047 4.652 16.124 6.927 25.557 6.412 12.458-0.683 22.231-5.436 29.049-14.127 5.178-6.6 8.453-15.153 9.899-25.93 5.937 3.583 10.337 8.298 12.767 13.966 4.132 9.635 4.373 25.468-8.546 38.376-11.319 11.308-24.925 16.2-45.488 16.351-22.809-0.169-40.06-7.484-51.275-21.742-10.502-13.351-15.93-32.635-16.133-57.317 0.203-24.682 5.63-43.966 16.133-57.317 11.216-14.258 28.466-21.573 51.275-21.743 22.975 0.17 40.526 7.52 52.171 21.847 5.71 7.026 10.015 15.86 12.853 26.162l16.147-4.308c-3.44-12.68-8.853-23.606-16.219-32.668-14.929-18.366-36.763-27.778-64.895-27.973h-0.113c-28.075 0.194-49.665 9.642-64.169 28.08-12.906 16.405-19.564 39.235-19.787 67.852l-1e-3 0.068v0.067c0.224 28.617 6.882 51.447 19.788 67.854 14.504 18.437 36.094 27.885 64.169 28.079h0.113c24.96-0.173 42.554-6.708 57.048-21.189 18.963-18.945 18.392-42.692 12.142-57.27-4.484-10.454-13.033-18.945-24.723-24.553zm-43.097 40.519c-10.44 0.588-21.286-4.098-21.82-14.135-0.397-7.442 5.296-15.746 22.461-16.735 1.966-0.114 3.895-0.169 5.79-0.169 6.235 0 12.068 0.606 17.371 1.765-1.978 24.702-13.58 28.713-23.802 29.274z"/></svg>